<?xml version="1.0" standalone="no"?>
<!DOCTYPE svg PUBLIC "-//W3C//DTD SVG 20010904//EN"
 "http://www.w3.org/TR/2001/REC-SVG-20010904/DTD/svg10.dtd">
<svg version="1.0" xmlns="http://www.w3.org/2000/svg"
 width="3840.000000pt" height="2160.000000pt" viewBox="0 0 3840.000000 2160.000000"
 preserveAspectRatio="xMidYMid meet">

<g transform="translate(0.000000,2160.000000) scale(0.100000,-0.100000)"
fill="#000000" stroke="none">
<path d="M18790 21284 c-570 -31 -910 -67 -1367 -144 -1274 -216 -2514 -677
-3638 -1353 -1000 -601 -1946 -1419 -2696 -2333 -808 -983 -1436 -2119 -1839
-3324 -517 -1544 -665 -3190 -435 -4821 156 -1106 485 -2161 986 -3169 224
-449 387 -733 654 -1135 1210 -1823 2951 -3219 4995 -4006 864 -332 1832 -558
2760 -643 376 -35 516 -40 990 -40 565 0 857 17 1350 80 1833 234 3585 960
5056 2095 673 520 1321 1162 1845 1830 1141 1452 1878 3176 2134 4988 230
1631 82 3277 -435 4821 -403 1205 -1031 2341 -1839 3324 -403 491 -935 1025
-1426 1432 -1205 997 -2648 1726 -4155 2097 -609 150 -1163 236 -1855 287
-137 11 -957 21 -1085 14z m1035 -284 c710 -48 1362 -154 2006 -325 3455 -916
6189 -3593 7185 -7035 181 -625 299 -1244 359 -1880 56 -600 59 -1254 9 -1840
-226 -2670 -1493 -5132 -3549 -6895 -1567 -1345 -3537 -2188 -5595 -2394 -393
-40 -537 -46 -1040 -46 -604 0 -925 21 -1445 95 -1762 252 -3408 948 -4815
2039 -1203 932 -2202 2146 -2880 3501 -558 1114 -907 2323 -1029 3560 -61 618
-67 1279 -15 1880 235 2771 1579 5313 3739 7071 1700 1383 3765 2169 5990
2279 216 10 870 5 1080 -10z"/>
<path d="M18725 20643 c-262 -16 -408 -27 -570 -44 -2267 -237 -4387 -1264
-5990 -2901 -1603 -1637 -2576 -3742 -2780 -6013 -49 -548 -49 -1219 0 -1770
188 -2112 1046 -4085 2474 -5690 149 -168 598 -617 766 -766 1696 -1509 3779
-2371 6039 -2499 230 -13 842 -13 1072 0 1013 57 1977 258 2909 605 1141 425
2198 1065 3130 1894 168 149 617 598 766 766 1509 1696 2371 3779 2499 6039
13 227 13 849 0 1071 -77 1345 -400 2590 -979 3780 -831 1707 -2158 3155
-3786 4132 -1390 835 -2908 1301 -4539 1393 -158 9 -880 11 -1011 3z m1235
-127 c1728 -148 3260 -678 4655 -1611 2136 -1426 3622 -3635 4139 -6150 186
-908 242 -1889 161 -2825 -139 -1586 -673 -3128 -1550 -4465 -628 -959 -1457
-1833 -2391 -2520 -1325 -977 -2881 -1598 -4529 -1810 -674 -86 -1409 -100
-2105 -40 -1387 121 -2759 552 -3975 1248 -1671 957 -3053 2428 -3900 4152
-1671 3402 -1222 7471 1149 10410 1010 1252 2307 2236 3765 2857 1040 443
2106 693 3281 768 218 14 1085 4 1300 -14z"/>
<path d="M18715 20103 c-22 -2 -177 -15 -345 -29 -168 -13 -313 -27 -322 -30
-12 -3 -18 -15 -18 -34 0 -24 5 -29 33 -34 38 -7 70 -37 86 -78 13 -34 91
-894 91 -1000 0 -67 -3 -80 -25 -106 -14 -16 -36 -33 -50 -36 -17 -4 -25 -13
-25 -29 0 -27 15 -51 27 -44 30 19 744 67 993 67 l135 0 54 163 c30 89 56 167
58 172 2 6 -9 15 -24 21 -26 9 -32 6 -84 -46 -109 -108 -201 -156 -357 -186
-77 -15 -339 -19 -358 -6 -21 14 -33 48 -43 127 -18 134 -42 437 -36 443 9 10
239 15 310 7 54 -5 73 -12 101 -37 19 -17 37 -41 40 -54 5 -20 13 -24 41 -24
l34 0 -2 133 c-2 72 -5 162 -7 198 -4 66 -4 66 -33 65 -24 -1 -33 -9 -51 -46
-15 -28 -35 -50 -58 -61 -52 -27 -191 -51 -294 -53 l-91 -1 -6 70 c-3 39 -9
118 -13 177 -7 105 -7 108 17 132 22 21 36 25 143 31 171 11 345 1 424 -24 36
-11 98 -41 138 -66 41 -25 77 -45 81 -45 5 0 15 8 24 18 15 16 12 26 -40 135
l-56 117 -226 -2 c-124 -1 -244 -3 -266 -5z"/>
<path d="M20118 20033 c-3 -25 3 -31 42 -49 53 -25 100 -76 100 -109 0 -13
-122 -209 -294 -471 -300 -458 -372 -552 -448 -588 -31 -14 -38 -22 -38 -45
l0 -28 113 -7 c61 -4 159 -11 216 -17 57 -5 105 -9 106 -7 1 2 6 17 9 35 6 26
4 32 -13 38 -36 11 -79 54 -86 85 -8 37 14 88 88 203 37 57 63 87 75 87 27 0
238 -28 394 -52 l138 -21 36 -116 c20 -64 37 -134 38 -156 1 -50 -24 -92 -62
-101 -31 -8 -42 -20 -42 -50 0 -19 10 -23 93 -38 50 -9 175 -35 275 -57 101
-22 185 -39 187 -37 1 2 5 15 8 29 5 21 0 31 -23 52 -16 15 -41 50 -55 77 -14
28 -113 311 -221 628 -218 646 -230 679 -253 692 -15 8 -318 50 -361 50 -13 0
-20 -8 -22 -27z m280 -570 c40 -126 72 -231 72 -235 0 -4 -15 -5 -32 -2 -18 2
-105 14 -193 25 -88 12 -168 24 -177 28 -14 5 5 40 115 209 73 111 135 202
138 202 3 0 38 -102 77 -227z"/>
<path d="M17410 19943 c-180 -36 -397 -85 -410 -93 -18 -11 -1 -60 21 -60 43
0 88 -29 108 -68 18 -36 101 -343 101 -375 0 -15 -92 -43 -437 -132 l-202 -53
-20 67 c-59 196 -73 252 -78 308 -6 62 -6 63 32 97 31 29 36 39 31 60 -3 14
-11 26 -16 26 -15 0 -504 -161 -513 -169 -4 -4 -3 -20 2 -35 9 -22 15 -25 36
-20 41 10 80 -13 108 -64 13 -26 73 -200 132 -387 165 -520 175 -555 175 -614
0 -49 -3 -56 -37 -87 -33 -31 -35 -36 -24 -60 6 -14 17 -24 24 -21 6 2 118 39
247 82 129 43 237 79 239 81 2 2 1 14 -3 27 -5 20 -14 25 -51 29 -53 6 -70 19
-95 68 -20 39 -152 472 -145 478 24 25 615 185 630 171 8 -9 107 -435 112
-486 5 -49 4 -54 -28 -86 -19 -19 -39 -36 -46 -38 -14 -5 -5 -59 11 -59 6 0
79 15 162 34 83 19 197 42 253 52 95 16 102 19 97 38 -3 12 -6 27 -6 34 0 7
-13 12 -34 12 -44 0 -79 29 -104 87 -27 63 -222 946 -222 1005 0 49 25 92 60
103 20 6 27 40 12 61 -5 7 -42 3 -122 -13z"/>
<path d="M21744 19696 c-141 -34 -239 -121 -285 -254 -28 -79 -23 -197 11
-267 50 -103 181 -209 447 -359 240 -136 307 -216 274 -326 -34 -113 -161
-164 -311 -126 -239 61 -439 248 -515 482 -14 45 -19 50 -45 50 -33 0 -29 12
-56 -222 -10 -83 -14 -159 -11 -168 6 -14 15 -16 52 -10 58 8 83 -2 217 -88
196 -127 344 -174 527 -166 95 4 115 8 179 38 136 62 218 182 230 332 14 186
-88 305 -428 503 -95 55 -197 120 -228 145 -72 57 -107 122 -97 179 22 132
161 186 335 132 166 -52 271 -149 366 -340 41 -83 47 -91 73 -91 l29 0 7 143
c4 78 5 158 3 177 -3 34 -4 35 -55 41 -40 5 -76 21 -150 67 -204 124 -401 169
-569 128z"/>
<path d="M15570 19385 c-174 -75 -399 -180 -533 -246 -144 -72 -486 -256 -499
-268 -6 -5 3 -53 53 -298 10 -50 12 -53 40 -53 16 0 31 6 34 13 2 6 13 44 25
82 50 163 124 268 224 321 79 41 87 35 177 -137 94 -178 352 -712 368 -758 20
-61 14 -103 -20 -144 -28 -34 -30 -41 -20 -63 6 -14 15 -24 19 -22 73 34 502
251 502 253 0 2 -5 14 -10 27 -10 21 -17 23 -66 20 -53 -4 -57 -3 -94 37 -26
27 -78 118 -153 268 -154 306 -307 630 -314 665 -12 62 78 101 232 101 98 0
147 -10 243 -50 l64 -26 20 21 21 21 -117 135 c-64 75 -118 136 -119 135 -1
-1 -36 -16 -77 -34z"/>
<path d="M22860 19175 c-63 -69 -116 -128 -117 -133 -1 -4 4 -16 12 -26 14
-19 17 -19 117 15 92 30 114 34 213 34 102 0 114 -2 170 -30 48 -24 61 -35 63
-56 3 -28 -69 -181 -240 -504 -161 -304 -220 -406 -256 -442 -33 -34 -38 -35
-93 -31 -53 4 -58 2 -69 -21 -13 -29 -20 -23 115 -92 55 -29 162 -85 238 -126
76 -42 139 -74 141 -72 2 2 9 14 15 27 11 20 8 27 -18 58 -49 55 -44 105 23
240 148 302 419 790 447 805 52 27 190 -95 255 -226 19 -38 42 -103 51 -143
15 -61 21 -74 41 -79 12 -3 25 -3 28 0 10 9 84 331 80 343 -4 11 -171 111
-391 234 -127 71 -685 350 -700 350 -6 0 -62 -56 -125 -125z"/>
<path d="M24380 18476 c-11 -22 -10 -28 9 -52 27 -34 27 -78 0 -129 -25 -47
-502 -707 -565 -781 -54 -64 -92 -81 -146 -67 -36 10 -40 9 -56 -15 -16 -24
-15 -26 8 -41 138 -91 557 -420 762 -598 58 -51 109 -93 113 -93 6 0 301 165
313 175 1 1 -2 13 -8 26 -11 24 -14 24 -143 24 -120 0 -139 3 -210 29 -87 32
-172 84 -262 159 -108 91 -145 131 -145 153 0 11 18 49 41 84 37 58 250 354
269 374 13 13 126 -72 212 -161 84 -87 102 -129 79 -187 -10 -28 -9 -33 11
-48 13 -10 26 -17 30 -15 10 3 248 288 248 297 0 4 -10 14 -22 22 -20 13 -27
13 -66 -4 -29 -13 -53 -17 -75 -13 -60 13 -208 103 -311 189 l-30 25 74 98
c108 144 148 190 170 196 26 7 104 -45 241 -162 155 -131 233 -244 270 -389
12 -51 14 -53 43 -50 31 3 31 5 63 123 18 66 32 125 33 131 0 21 -285 257
-555 460 -177 133 -362 264 -372 264 -5 0 -15 -11 -23 -24z"/>
<path d="M13980 18474 c-159 -42 -390 -202 -830 -572 -33 -28 -34 -30 -18 -54
16 -24 20 -25 56 -15 48 13 81 5 123 -30 44 -38 581 -709 618 -775 35 -60 39
-106 14 -149 -17 -28 -17 -30 4 -51 l22 -21 30 24 c69 56 376 303 379 305 2 2
-4 14 -14 27 -18 23 -20 24 -61 10 -69 -24 -95 -3 -252 200 -50 65 -91 122
-90 125 0 4 23 25 51 48 l51 41 151 -49 c428 -139 580 -146 749 -34 80 53 124
122 136 212 l7 52 -30 6 c-17 4 -32 3 -33 -1 -13 -36 -50 -77 -86 -93 -83 -38
-162 -24 -448 80 -96 35 -176 64 -177 66 -2 1 19 35 47 75 128 182 117 357
-29 492 -76 70 -144 97 -243 96 -40 0 -97 -7 -127 -15z m67 -231 c54 -25 130
-104 158 -165 65 -140 5 -248 -228 -416 -48 -34 -89 -62 -91 -62 -8 0 -336
429 -336 439 0 15 169 148 230 180 101 54 188 62 267 24z"/>
<path d="M18730 18309 c-1695 -111 -3261 -764 -4526 -1886 -172 -152 -514
-496 -661 -663 -981 -1121 -1619 -2529 -1802 -3980 -72 -564 -80 -1191 -25
-1745 155 -1545 795 -3016 1827 -4195 147 -167 489 -511 661 -663 1027 -912
2259 -1517 3606 -1771 682 -129 1438 -161 2150 -90 1567 156 3046 805 4236
1861 172 152 514 496 661 663 748 855 1298 1874 1597 2960 244 889 321 1811
230 2750 -234 2427 -1676 4621 -3826 5821 -991 554 -2056 864 -3223 939 -183
12 -720 11 -905 -1z m960 -109 c1061 -73 2064 -358 2985 -848 1847 -983 3199
-2704 3713 -4727 108 -423 180 -884 212 -1350 14 -206 14 -733 0 -945 -110
-1664 -739 -3177 -1849 -4445 -137 -157 -482 -502 -642 -641 -1154 -1012
-2557 -1638 -4054 -1809 -271 -31 -370 -36 -730 -42 -496 -7 -835 14 -1275 83
-2053 319 -3879 1493 -5035 3239 -178 269 -284 452 -435 750 -457 904 -711
1838 -780 2870 -14 207 -14 736 0 940 68 997 309 1902 739 2780 357 729 791
1345 1356 1924 1345 1379 3160 2176 5085 2234 155 5 554 -3 710 -13z"/>
<path d="M18830 17839 c-1597 -84 -3111 -705 -4310 -1768 -230 -204 -549 -535
-762 -791 -494 -595 -915 -1332 -1183 -2070 -482 -1329 -554 -2778 -205 -4153
192 -760 525 -1507 965 -2167 505 -759 1175 -1430 1941 -1945 338 -228 803
-480 1176 -638 1411 -597 2997 -716 4491 -337 1080 273 2091 810 2937 1559
132 117 430 413 554 551 645 717 1127 1537 1439 2446 419 1222 489 2586 195
3854 -346 1496 -1160 2825 -2341 3819 -1356 1142 -3124 1734 -4897 1640z m824
-280 c71 -5 130 -10 131 -11 1 -2 -20 -73 -47 -158 -49 -157 -55 -190 -39
-190 5 0 71 74 147 165 88 106 144 165 156 165 29 0 357 -50 415 -63 l52 -12
-125 -178 c-69 -98 -122 -182 -119 -187 9 -15 25 -4 257 167 l211 155 131 -32
c190 -45 348 -93 346 -105 -2 -5 -120 -111 -264 -234 -151 -129 -262 -232
-264 -244 -3 -15 1 -19 15 -14 10 2 211 88 447 191 l428 186 137 -55 c132 -52
428 -181 467 -203 17 -10 17 -12 -11 -22 -16 -6 -307 -122 -645 -258 -426
-171 -615 -252 -615 -262 0 -8 7 -14 15 -13 8 1 391 75 851 164 l837 163 121
-73 c152 -90 392 -251 533 -356 101 -76 105 -80 80 -87 -15 -4 -495 -37 -1067
-73 -1168 -73 -1145 -71 -1145 -90 0 -8 19 -15 53 -19 28 -3 624 -42 1322 -87
699 -44 1282 -85 1296 -91 32 -12 419 -401 544 -548 165 -193 187 -220 173
-220 -7 1 -760 124 -1673 274 -913 151 -1664 270 -1669 266 -4 -5 -6 -12 -3
-17 3 -5 877 -290 1941 -633 l1935 -624 83 -146 c150 -264 374 -728 345 -717
-6 3 -947 379 -2090 836 -1143 457 -2082 829 -2088 826 -5 -4 -9 -10 -9 -14 0
-5 707 -424 1571 -932 l1571 -924 -6 -135 c-7 -148 -71 -538 -92 -559 -5 -5
-131 79 -1822 1218 -712 479 -1301 871 -1309 871 -8 0 -13 -6 -11 -12 2 -7
591 -565 1309 -1240 l1304 -1228 -2 -107 c-2 -98 -65 -649 -76 -659 -2 -3 -72
66 -156 152 -145 150 -151 157 -151 197 -1 83 -20 172 -50 233 -62 126 -217
231 -404 274 l-95 22 -923 955 c-508 526 -953 988 -990 1027 -51 55 -69 68
-78 59 -10 -9 143 -237 695 -1040 390 -565 716 -1040 727 -1055 l18 -26 -57
-32 c-32 -18 -92 -67 -134 -109 -85 -86 -150 -199 -171 -302 -6 -32 -14 -59
-18 -59 -3 0 -282 454 -621 1008 -345 563 -624 1008 -633 1010 -9 2 -16 -2
-16 -8 0 -6 180 -479 400 -1051 220 -572 400 -1044 400 -1050 0 -5 -10 -7 -22
-5 -13 3 -162 24 -333 47 -170 23 -311 42 -312 43 -1 1 -76 249 -168 551 -244
805 -234 775 -252 775 -13 0 -15 -9 -11 -52 38 -376 111 -1219 106 -1224 -6
-6 -429 34 -436 41 -7 7 112 1790 119 1793 4 2 26 17 49 33 53 39 91 117 98
205 4 60 7 64 42 88 75 50 102 172 57 268 l-24 55 18 49 c27 70 25 126 -6 162
l-24 29 55 167 c52 155 57 166 80 166 33 0 78 24 102 55 11 13 30 65 42 114
l22 89 86 7 c117 9 156 20 198 57 52 46 66 80 65 159 -1 81 -24 135 -74 173
-41 31 -92 42 -234 51 l-112 7 21 22 c36 37 68 122 80 211 28 207 -38 457
-174 658 -51 76 -193 220 -210 215 -9 -3 -15 -34 -19 -89 -5 -77 -33 -199 -44
-199 -8 0 -84 170 -115 257 -16 44 -34 108 -40 142 -14 80 -14 225 1 318 8 48
8 78 2 84 -6 6 -41 -23 -99 -83 -90 -94 -155 -177 -218 -282 l-34 -57 -52 103
c-118 236 -271 420 -480 575 -78 59 -226 144 -298 173 -34 14 -62 28 -62 32 0
18 578 16 834 -3z m-939 -230 c76 -146 101 -304 75 -469 -15 -96 -16 -97 -56
-43 -119 159 -313 295 -497 348 -89 26 -92 10 -18 -71 80 -88 127 -184 147
-299 18 -103 10 -188 -32 -334 -25 -86 -111 -281 -124 -281 -4 0 -15 28 -26
63 -29 94 -26 271 5 352 44 115 42 116 -47 50 -209 -153 -393 -536 -409 -850
-7 -130 8 -195 61 -272 l34 -50 -116 -6 c-147 -9 -187 -20 -233 -66 -44 -44
-63 -103 -57 -182 9 -129 101 -189 287 -189 l67 0 23 -96 c27 -112 63 -159
129 -170 l38 -6 54 -162 53 -161 -27 -39 c-32 -47 -32 -73 -5 -155 l22 -63
-22 -44 c-16 -31 -22 -62 -23 -113 -1 -82 18 -123 74 -159 32 -22 36 -29 41
-82 12 -107 56 -190 121 -225 33 -18 36 -24 36 -61 0 -23 25 -423 55 -889 31
-466 53 -850 50 -853 -7 -7 -377 -54 -382 -48 -2 2 15 260 38 574 23 313 39
577 35 587 -4 12 -10 15 -16 9 -6 -6 -82 -279 -169 -608 -87 -328 -161 -599
-164 -602 -7 -8 -616 -98 -622 -93 -2 3 153 463 345 1024 193 561 350 1028
350 1038 0 9 -6 17 -12 17 -7 0 -285 -467 -618 -1037 l-605 -1037 -7 52 c-10
66 -50 182 -84 241 -64 110 -143 191 -266 273 l-37 24 715 1063 c534 795 712
1067 704 1075 -9 8 -28 -6 -73 -55 -34 -36 -466 -493 -960 -1016 l-898 -951
-60 -6 c-160 -18 -288 -82 -409 -205 -127 -129 -170 -228 -170 -394 l0 -69
-121 -129 c-67 -71 -125 -129 -130 -129 -5 0 -9 7 -9 16 0 29 -117 367 -169
487 -28 65 -51 122 -51 127 0 7 2511 2460 2689 2627 60 56 73 74 64 83 -9 10
-61 -22 -245 -151 -237 -166 -1360 -955 -2511 -1763 -351 -247 -640 -447 -641
-445 -13 15 -246 654 -239 657 4 1 789 483 1743 1070 1014 624 1735 1074 1735
1083 0 8 -8 13 -17 11 -9 -1 -900 -370 -1980 -818 -1080 -449 -2016 -837
-2080 -864 -106 -44 -116 -46 -109 -27 57 147 250 533 366 732 48 83 97 166
108 186 23 40 -84 1 997 357 234 77 603 199 820 270 686 226 1913 630 1968
647 50 17 72 45 33 45 -10 0 -762 -144 -1671 -320 -910 -176 -1657 -319 -1662
-318 -21 8 423 500 582 646 l79 72 1373 175 c755 96 1388 177 1406 180 54 10
39 32 -25 39 -32 3 -508 31 -1058 61 -550 31 -1013 59 -1029 63 -28 7 -20 14
165 138 188 127 329 214 494 306 l80 45 770 -103 c424 -57 785 -104 803 -104
23 0 32 4 30 13 -3 6 -239 111 -526 232 -287 121 -522 223 -522 227 0 14 419
172 634 238 l98 30 303 -190 c166 -105 307 -190 313 -190 6 0 13 4 17 9 3 6
-66 108 -154 228 -88 120 -157 221 -153 225 21 20 536 116 796 147 l151 19 63
-66 c39 -42 79 -98 107 -153z m75 159 c303 -136 583 -416 728 -728 38 -81 92
-234 92 -259 0 -9 -13 -49 -28 -89 l-29 -72 -82 107 c-45 60 -127 170 -184
245 -56 75 -107 137 -113 137 -16 1 -20 -21 -23 -104 -4 -128 -33 -246 -109
-445 -48 -124 -79 -268 -88 -407 -6 -87 -4 -110 16 -174 12 -41 29 -87 37
-103 l15 -29 -29 7 c-152 38 -263 164 -294 336 -22 126 11 322 92 535 75 200
109 368 109 543 0 188 -58 345 -190 515 l-22 27 24 -9 c12 -5 48 -20 78 -33z
m-288 -565 c73 -58 143 -136 197 -221 39 -61 40 -52 -33 -240 -142 -365 -149
-634 -20 -822 19 -27 34 -51 34 -54 0 -2 -29 -9 -65 -16 -152 -29 -279 30
-341 156 -24 48 -27 66 -26 147 2 100 19 179 56 260 129 280 156 368 164 526
5 130 -6 198 -48 283 -27 55 -27 57 -7 47 12 -7 52 -36 89 -66z m1467 -298
c22 -97 43 -151 121 -315 86 -180 118 -281 127 -407 11 -147 -29 -257 -113
-315 -54 -37 -152 -61 -217 -53 -59 7 -144 33 -152 45 -3 4 2 37 11 72 35 133
2 326 -82 489 l-45 88 36 108 c42 128 133 317 205 428 88 134 84 134 91 14 4
-57 12 -126 18 -154z m-657 -90 c66 -89 224 -349 264 -434 120 -250 90 -482
-70 -557 -41 -19 -67 -24 -136 -24 -104 0 -150 19 -207 84 -51 58 -63 104 -63
244 0 132 21 261 66 407 32 104 75 256 89 319 3 15 8 27 10 25 2 -2 23 -31 47
-64z m-1199 -400 c8 -27 20 -63 26 -79 9 -22 9 -43 1 -78 -5 -27 -13 -86 -16
-132 -6 -69 -3 -95 14 -152 12 -38 33 -86 47 -106 31 -46 31 -52 -1 -67 -87
-39 -198 -17 -262 53 -54 59 -66 106 -65 251 2 188 56 361 166 526 l62 94 7
-130 c3 -71 13 -152 21 -180z m2336 121 c18 -31 47 -95 64 -143 27 -77 31
-105 35 -218 3 -115 1 -137 -18 -188 -47 -125 -138 -197 -251 -197 l-58 0 28
43 c40 60 70 147 77 225 8 79 -9 217 -36 303 l-18 61 24 95 c13 53 24 114 24
137 l1 41 47 -52 c26 -28 62 -76 81 -107z m345 -883 c22 -7 51 -23 65 -38 22
-22 26 -34 26 -85 -1 -83 -24 -106 -120 -120 -82 -11 -3050 -13 -3133 -1 -75
11 -105 37 -114 96 -8 58 9 106 46 131 18 11 60 19 129 24 170 12 3056 5 3101
-7z m-287 -397 c-3 -8 -9 -30 -12 -50 -12 -61 -21 -64 -218 -68 -154 -3 -180
-5 -191 -20 -19 -26 -50 -209 -44 -262 3 -26 18 -68 34 -94 25 -40 42 -53 118
-90 95 -48 93 -45 66 -117 l-10 -25 -1058 0 -1058 0 -12 33 c-23 63 -18 73 50
99 111 41 178 129 178 232 0 51 -40 209 -56 222 -8 6 -87 14 -186 18 -193 7
-211 13 -222 71 -4 20 -10 43 -13 51 -4 12 175 14 1317 14 1142 0 1321 -2
1317 -14z m-2269 -244 c7 -5 17 -37 23 -71 14 -78 1 -131 -39 -160 -57 -40
-61 -36 -103 89 -22 63 -39 120 -39 127 0 19 132 31 158 15z m2078 -4 c7 -7
-75 -258 -84 -258 -22 0 -75 45 -88 75 -17 41 -18 77 -3 146 l11 51 79 -4 c44
-3 82 -7 85 -10z m-67 -582 c19 -12 41 -70 41 -106 0 -38 -24 -86 -49 -100
-13 -7 -363 -10 -1051 -10 l-1031 0 -24 25 c-21 20 -25 34 -25 79 0 65 26 104
78 114 47 10 2045 7 2061 -2z m-75 -363 c-11 -47 -40 -107 -60 -124 -51 -44
-59 -44 -899 -44 -877 0 -882 0 -930 56 -23 29 -45 86 -45 122 0 16 53 17 970
17 l970 0 -6 -27z m-160 -345 c-6 -65 -104 -1633 -104 -1661 0 -19 -4 -19 -72
-13 -39 3 -73 8 -74 9 -1 1 16 313 38 692 21 380 36 710 33 734 -5 32 -16 54
-41 79 l-34 34 -84 -3 c-66 -3 -89 -8 -106 -24 -49 -43 -49 -48 -65 -717 -8
-348 -16 -667 -18 -708 l-2 -74 -52 1 c-87 2 -93 3 -88 16 2 6 6 230 9 497 4
267 9 575 12 685 6 196 5 201 -18 245 -31 60 -74 84 -153 83 -70 0 -114 -20
-149 -66 -25 -34 -25 -47 -12 -895 l8 -563 -68 3 -69 3 -3 110 c-1 61 -9 376
-16 700 -15 641 -15 645 -72 682 -20 13 -47 18 -94 18 -85 -1 -125 -22 -151
-80 l-20 -44 44 -698 c24 -384 42 -700 40 -703 -2 -2 -34 -6 -71 -8 l-67 -4
-53 834 c-29 458 -56 845 -58 861 l-6 27 820 0 821 0 -5 -52z m4585 -240 c264
-262 419 -520 497 -828 20 -82 27 -139 31 -261 9 -245 -29 -417 -139 -633 -44
-87 -65 -115 -150 -199 -54 -54 -98 -95 -98 -93 0 3 9 74 20 158 29 230 43
519 36 722 -10 272 -45 501 -77 501 -16 0 -16 -4 1 -145 18 -150 8 -529 -19
-733 -22 -159 -66 -407 -97 -546 l-17 -74 -47 134 c-51 147 -102 265 -162 376
-34 63 -41 85 -50 175 -14 140 -4 435 20 578 11 63 36 183 55 265 49 204 66
329 74 533 3 94 9 172 12 172 4 0 53 -46 110 -102z m-11074 -58 c57 -214 135
-456 199 -628 172 -460 238 -725 252 -1022 l6 -125 -55 -145 c-63 -166 -93
-275 -103 -375 -4 -38 -10 -76 -13 -82 -8 -15 -43 71 -108 262 -105 309 -181
681 -199 982 -8 121 -15 146 -36 125 -20 -20 -16 -433 6 -592 25 -182 68 -369
124 -537 27 -82 49 -149 48 -150 0 0 -53 33 -116 76 -108 72 -118 82 -162 154
-85 142 -149 321 -185 517 -21 117 -24 460 -5 595 43 305 139 632 273 927 24
53 47 93 50 90 3 -4 14 -36 24 -72z m6187 39 c48 -26 48 -27 12 -729 -18 -360
-34 -658 -34 -662 0 -5 -29 -8 -65 -8 -61 0 -65 1 -65 23 0 192 43 1319 51
1338 16 41 62 59 101 38z m-946 -23 l28 -23 17 -569 c10 -313 18 -615 18 -670
l1 -101 -61 -7 c-34 -4 -63 -6 -65 -4 -3 4 -61 1121 -66 1277 -2 69 0 75 26
97 35 30 67 30 102 0z m495 -2 l24 -26 0 -236 c-1 -490 -7 -1028 -12 -1064
l-5 -38 -73 0 -73 0 -4 58 c-3 31 -5 201 -6 377 -1 176 -5 437 -8 581 -7 278
-4 324 27 355 30 30 99 26 130 -7z m6134 -520 c442 -258 385 -195 445 -494 55
-273 119 -714 106 -728 -3 -2 -72 42 -154 98 l-149 102 -12 132 c-7 72 -15
139 -17 149 -11 35 -48 18 -123 -57 l-73 -74 -99 66 -98 65 6 111 c12 251 -59
546 -187 769 -53 93 -57 103 -37 90 6 -4 183 -107 392 -229z m-12235 -61 c-65
-230 -100 -471 -100 -713 l0 -135 -308 -217 c-169 -119 -308 -216 -309 -214
-4 4 28 311 47 454 12 81 34 217 50 302 53 283 49 269 89 295 96 64 556 343
559 340 2 -2 -10 -52 -28 -112z m1250 -498 c198 -441 278 -689 311 -970 15
-131 7 -306 -21 -425 -22 -92 -25 -98 -107 -200 -93 -116 -188 -255 -252 -370
-46 -81 -67 -109 -58 -75 8 28 43 266 61 415 27 217 46 496 45 648 -1 185 -8
246 -30 250 -15 3 -17 -13 -18 -141 0 -223 -40 -535 -118 -942 l-36 -189 -26
31 c-14 18 -34 58 -45 90 -26 81 -86 205 -143 293 l-48 75 1 175 c0 198 11
247 101 464 97 235 211 614 272 906 25 117 30 135 35 129 2 -2 36 -76 76 -164z
m1550 100 c265 -84 440 -257 497 -489 14 -59 15 -82 5 -168 -7 -54 -23 -143
-36 -196 -82 -324 -228 -1279 -275 -1802 -44 -473 -41 -1068 5 -1480 23 -197
23 -512 0 -599 -18 -72 -73 -179 -116 -230 l-29 -34 -108 11 c-358 39 -385 30
-304 -94 l39 -59 -37 -8 c-58 -14 -248 0 -329 23 -142 40 -274 119 -376 225
-84 87 -118 184 -105 295 9 76 69 212 129 291 40 53 62 72 114 98 121 59 283
76 443 46 90 -17 217 -76 281 -131 l43 -37 -6 -66 c-9 -95 -25 -214 -29 -218
-2 -2 -27 13 -57 33 -182 124 -446 184 -597 136 -77 -25 -138 -65 -160 -106
-20 -39 -19 -133 2 -174 23 -45 89 -97 149 -116 199 -64 607 3 759 124 20 17
41 30 46 30 5 0 36 -18 70 -40 34 -21 63 -36 66 -32 2 4 9 42 16 85 33 218
-81 449 -279 565 -67 39 -187 79 -280 93 -118 17 -325 7 -426 -21 -162 -44
-317 -133 -421 -242 -103 -107 -144 -223 -144 -403 0 -148 36 -280 97 -354
l19 -24 28 47 28 47 68 -69 c123 -125 282 -205 473 -238 71 -13 130 -15 257
-10 91 3 179 8 197 12 l32 6 66 -132 c37 -73 63 -136 58 -140 -9 -9 -208 -35
-344 -46 -107 -8 -285 10 -409 42 -116 30 -290 114 -384 185 -186 142 -306
374 -323 624 -10 156 27 352 94 495 167 358 362 977 463 1464 150 728 215
1368 204 2010 -7 418 11 500 137 628 77 77 190 137 304 162 108 24 277 16 385
-19z m6914 -31 c191 -37 307 -117 372 -258 23 -51 25 -66 39 -452 23 -609 57
-1041 121 -1539 59 -460 160 -985 245 -1280 65 -227 196 -582 263 -713 55
-109 106 -320 106 -442 0 -76 -32 -197 -72 -273 -45 -85 -172 -210 -273 -267
-158 -89 -345 -149 -590 -186 -100 -16 -176 -19 -457 -19 -186 1 -340 4 -344
7 -3 4 2 52 11 106 9 55 15 113 13 129 -3 25 -7 28 -36 26 -43 -2 -194 -61
-365 -145 l-138 -67 -122 15 c-174 21 -421 58 -732 109 -914 150 -1609 177
-2605 99 -388 -30 -776 -76 -1175 -140 l-230 -37 -95 62 c-169 111 -389 205
-573 246 -43 9 -76 20 -74 24 39 73 98 209 108 251 20 79 17 459 -4 615 -36
262 -42 389 -42 870 0 508 3 570 55 1030 70 615 161 1206 217 1420 9 33 17 61
18 62 1 2 120 18 266 38 320 42 613 84 894 130 334 54 601 86 985 117 502 40
1477 -18 2220 -132 346 -53 731 -101 927 -116 l93 -7 10 -36 c78 -292 165
-775 204 -1136 86 -792 82 -1520 -11 -2250 -37 -288 -39 -561 -5 -646 48 -121
208 -270 351 -330 178 -74 465 -114 648 -89 330 43 612 264 665 521 7 32 14
59 18 59 3 0 19 -9 35 -20 17 -11 35 -20 42 -20 6 0 16 30 23 68 35 208 -134
482 -364 591 -227 108 -532 132 -756 60 -109 -36 -180 -79 -260 -159 -119
-119 -172 -242 -174 -400 0 -84 18 -185 35 -196 5 -3 32 15 60 40 29 26 56 43
63 39 6 -4 30 -20 53 -35 148 -100 394 -146 633 -119 158 18 268 79 306 168
31 72 3 165 -64 207 -122 77 -315 80 -460 7 -61 -31 -183 -124 -236 -180 -16
-17 -33 -28 -38 -25 -4 3 -8 76 -8 163 l0 158 53 51 c110 104 241 147 427 140
102 -4 124 -8 200 -39 84 -33 86 -35 136 -109 61 -92 122 -241 130 -319 7 -66
-13 -151 -51 -210 -58 -93 -213 -203 -350 -248 -70 -23 -100 -27 -246 -31
-248 -6 -408 33 -581 142 -67 42 -89 62 -116 106 -18 30 -38 73 -44 95 -19 65
-12 291 16 520 75 617 86 1279 30 1885 -41 453 -107 894 -205 1365 -28 132
-57 275 -66 318 -15 71 -15 85 0 157 41 209 194 373 414 444 110 36 298 40
457 10z m1055 -31 c265 -336 480 -750 570 -1103 87 -336 80 -662 -20 -947 -47
-134 -182 -381 -209 -383 -3 0 -6 91 -8 203 -6 459 -65 922 -157 1223 -18 60
-30 84 -42 84 -18 0 -18 -1 16 -225 38 -252 71 -659 71 -875 l0 -85 -68 135
c-73 148 -150 270 -242 381 -67 82 -66 78 -76 309 -6 158 8 442 31 622 8 62
26 199 40 303 13 105 28 241 31 303 4 61 10 112 13 111 3 0 26 -25 50 -56z
m1658 -733 c-3 -187 -9 -291 -21 -355 -51 -278 -151 -491 -313 -666 -65 -70
-103 -97 -338 -239 -169 -102 -255 -147 -255 -131 0 15 102 247 175 396 84
172 178 342 277 500 48 77 65 112 57 120 -13 12 -48 -26 -164 -180 -146 -194
-284 -433 -371 -642 -21 -51 -39 -91 -40 -90 -1 1 9 43 22 92 51 191 64 397
38 640 -6 60 -6 61 46 140 72 111 233 266 430 415 107 82 213 174 305 265
l140 140 8 -70 c4 -38 6 -189 4 -335z m-12577 -302 c157 -57 405 -184 519
-265 117 -84 260 -223 330 -323 107 -152 191 -355 227 -547 10 -53 18 -164 21
-278 5 -220 19 -221 -111 5 -147 254 -342 538 -511 745 -95 116 -262 285 -282
285 -25 0 -12 -26 65 -125 168 -215 356 -490 497 -725 92 -153 203 -354 199
-359 -2 -2 -48 38 -102 90 -129 124 -264 226 -469 355 -273 172 -281 179 -340
272 -128 205 -195 453 -210 781 l-6 144 29 -7 c16 -4 81 -25 144 -48z m10774
-643 c84 -106 135 -190 195 -316 223 -466 220 -946 -7 -1404 -42 -85 -151
-260 -157 -253 -2 2 -20 59 -40 127 l-37 125 12 221 c15 266 8 683 -14 799
-14 72 -28 107 -40 95 -3 -3 -7 -135 -10 -294 -5 -317 -15 -495 -26 -473 -19
33 -114 614 -161 972 l-21 168 26 122 c24 108 45 268 46 336 0 22 10 14 86
-60 47 -47 114 -121 148 -165z m-8851 -180 l25 -109 -29 -179 c-82 -504 -200
-995 -352 -1457 l-34 -105 -8 48 c-12 79 1 597 19 735 18 139 57 350 84 464
18 74 18 88 1 88 -19 0 -102 -278 -143 -480 -45 -224 -59 -368 -60 -622 -1
-130 -4 -234 -9 -229 -23 23 -131 258 -161 349 -55 169 -70 265 -70 447 0 125
5 185 23 273 42 215 128 432 258 650 67 112 233 336 324 436 l63 68 22 -133
c12 -74 34 -183 47 -244z m10595 118 c-50 -330 -153 -680 -277 -938 -98 -202
-189 -344 -302 -468 -43 -46 -48 -48 -184 -87 -159 -44 -341 -106 -463 -156
-45 -19 -85 -34 -87 -34 -9 0 125 195 222 325 122 164 268 338 423 504 119
129 144 161 122 161 -16 0 -117 -80 -212 -168 -200 -184 -442 -462 -610 -703
-40 -57 -70 -97 -67 -89 3 8 21 56 41 107 65 166 99 334 112 543 4 63 11 124
17 135 63 123 264 280 617 480 227 129 472 295 610 414 19 17 38 30 41 31 3 0
2 -26 -3 -57z m383 -260 l26 -28 -18 -145 c-33 -256 -118 -722 -135 -739 -6
-6 -45 32 -215 210 l-149 156 50 149 c56 166 111 380 135 524 8 52 18 105 21
118 4 21 16 12 132 -96 70 -66 139 -133 153 -149z m-12956 26 c101 -91 233
-190 422 -315 295 -194 471 -343 592 -504 99 -130 117 -166 125 -250 9 -101
41 -252 71 -341 14 -41 25 -75 25 -77 0 -2 -44 48 -97 110 -127 148 -437 457
-588 587 -146 125 -163 137 -176 124 -12 -12 4 -32 266 -318 277 -302 510
-572 538 -621 4 -7 -27 -1 -71 12 -42 13 -140 37 -218 53 -158 33 -217 58
-359 155 -351 239 -601 689 -654 1178 -12 105 -14 270 -5 305 l6 22 22 -24
c11 -12 57 -56 101 -96z m-209 14 c-15 -187 25 -474 95 -686 l39 -120 -69 -76
c-38 -42 -92 -98 -119 -125 l-50 -49 -12 41 c-45 168 -115 530 -143 739 l-14
103 133 130 c72 71 135 130 139 130 4 0 5 -39 1 -87z m12694 -1167 c0 -31 -85
-258 -135 -361 -196 -406 -549 -746 -964 -930 -82 -36 -218 -75 -225 -63 -1 2
-10 37 -20 78 -10 41 -30 104 -44 139 -18 46 -22 66 -14 69 7 2 65 36 130 74
198 120 351 234 530 396 71 65 90 87 82 97 -9 11 -34 -5 -118 -73 -155 -125
-325 -232 -510 -324 -90 -44 -164 -79 -166 -77 -6 6 -62 138 -96 223 l-31 79
38 39 c106 110 286 216 533 316 126 50 220 81 645 211 127 38 257 81 290 95
72 29 75 30 75 12z m-12146 -406 c34 -5 144 -21 246 -35 345 -48 553 -101 724
-187 88 -44 206 -123 206 -138 0 -6 -27 -78 -61 -162 -34 -84 -65 -163 -70
-176 -8 -21 -13 -19 -85 53 -122 123 -308 253 -342 240 -14 -5 -7 -15 33 -48
84 -70 224 -208 290 -288 62 -74 64 -76 54 -115 -27 -114 -29 -346 -3 -426 5
-16 -1 -18 -43 -18 -42 0 -60 7 -128 52 -44 29 -128 99 -186 157 -123 123
-221 265 -374 541 -115 206 -193 331 -287 458 -37 50 -68 94 -68 97 0 7 27 6
94 -5z m11833 -518 c17 -26 61 -91 98 -144 l67 -98 -75 -142 c-109 -211 -291
-512 -405 -671 l-35 -48 -38 57 -38 58 18 30 c82 139 176 345 236 516 28 83
33 104 23 125 -6 13 -17 26 -25 29 -7 3 -68 -8 -136 -23 -67 -16 -140 -32
-162 -36 l-40 -6 73 50 c133 92 196 145 297 247 55 55 102 102 105 102 3 1 19
-20 37 -46z m-11637 -122 c117 -214 241 -391 359 -510 118 -120 118 -122 2
-95 -97 23 -122 7 -97 -63 18 -52 72 -156 111 -218 l33 -51 -66 -117 c-36 -64
-69 -116 -73 -116 -8 0 -149 197 -241 340 -95 146 -219 356 -288 485 l-53 100
122 184 c67 100 124 181 125 179 2 -1 31 -55 66 -118z m11380 -279 c0 -19 -89
-230 -140 -330 -212 -423 -504 -702 -856 -820 -84 -28 -104 -31 -230 -32 -77
-1 -183 -4 -237 -8 -53 -3 -97 -5 -97 -4 0 2 30 42 66 90 36 48 68 92 72 98 4
6 39 24 77 39 347 143 686 366 847 560 75 90 48 94 -59 9 -82 -66 -240 -175
-290 -202 -19 -9 -15 1 23 72 54 104 84 215 84 318 l0 77 68 11 c259 41 394
66 507 95 144 37 165 40 165 27z m-10853 -446 c56 -8 146 -18 201 -21 l99 -7
31 -76 c64 -156 166 -293 295 -396 73 -58 215 -140 277 -159 34 -11 23 -13
-159 -31 l-154 -15 -91 54 c-176 104 -363 265 -488 421 -55 69 -168 237 -168
250 0 4 12 4 28 1 15 -3 73 -13 129 -21z m1888 -130 c503 -58 828 -203 1106
-492 52 -54 125 -144 161 -198 66 -99 67 -101 78 -195 6 -52 20 -142 31 -198
11 -57 19 -105 17 -106 -2 -2 -29 12 -60 31 -43 25 -88 69 -175 171 -162 189
-378 403 -501 495 -105 79 -302 184 -356 189 -50 5 -39 -19 26 -58 198 -120
481 -373 636 -568 39 -50 70 -91 69 -93 -2 -1 -39 9 -82 23 -122 38 -305 72
-458 86 l-138 12 -37 45 c-92 112 -245 360 -346 561 -60 117 -122 235 -137
262 l-28 48 32 0 c18 0 91 -7 162 -15z m3256 -392 c0 -126 2 -235 3 -243 2 -8
6 -283 10 -610 4 -327 9 -596 11 -598 2 -3 11 -2 20 1 13 6 15 53 16 379 0
205 2 382 4 393 2 11 5 193 6 405 1 212 4 411 7 443 l4 57 74 0 c72 0 74 -1
74 -24 0 -47 -29 -962 -34 -1063 -5 -97 -4 -103 15 -103 13 0 19 7 19 23 0 40
60 1061 66 1115 l6 53 71 -3 72 -3 -2 -35 c-2 -19 -28 -447 -58 -950 -31 -503
-58 -930 -61 -947 l-5 -33 -279 0 -279 0 -5 53 c-7 63 -116 1829 -116 1875 l0
32 70 0 c70 0 70 0 70 -27 0 -16 14 -271 30 -568 16 -297 30 -557 30 -578 0
-25 5 -40 15 -44 9 -3 17 -4 19 -2 2 2 -4 278 -13 612 -9 335 -14 611 -12 613
2 2 37 4 78 4 l73 0 1 -227z m1004 192 c139 -14 517 -63 521 -68 3 -3 54 -411
51 -412 -1 -1 -58 -40 -127 -85 -302 -201 -464 -349 -596 -544 -32 -48 -55
-74 -58 -65 -2 8 -11 221 -21 474 -9 253 -19 520 -22 593 l-6 133 49 -5 c27
-3 121 -13 209 -21z m-1675 -2 c1 -10 -9 -281 -22 -602 -18 -491 -24 -581 -35
-565 -163 234 -334 393 -638 599 -71 48 -131 88 -132 89 -2 2 48 419 51 422 2
3 385 44 536 58 213 20 240 20 240 -1z m3725 -120 c-94 -513 -317 -961 -634
-1272 l-86 -84 -120 2 c-66 1 -158 -3 -204 -9 -47 -5 -87 -8 -89 -5 -6 5 109
154 398 515 285 357 410 520 410 537 0 7 -6 13 -14 13 -31 0 -577 -609 -788
-880 -15 -19 -28 -32 -28 -29 0 3 18 53 40 111 46 122 102 342 120 473 13 89
13 90 69 148 216 228 554 453 856 572 95 38 94 39 70 -92z m1109 -115 c-13
-22 -66 -91 -117 -150 -34 -40 -56 -58 -72 -58 -95 0 -447 -86 -626 -154 -101
-38 -101 -38 26 63 49 40 132 111 185 160 l95 88 105 7 c108 7 264 28 335 45
59 13 77 13 69 -1z m-646 -53 c5 -4 -238 -186 -377 -283 -74 -51 -136 -91
-138 -88 -2 2 12 55 30 117 19 63 43 149 53 192 l18 78 206 -7 c113 -3 206 -8
208 -9z m-5033 -283 c390 -300 520 -417 633 -567 66 -88 165 -286 192 -385 43
-160 64 -429 43 -553 l-6 -38 -25 43 c-191 332 -436 734 -508 835 -83 117
-194 224 -194 188 0 -3 38 -69 85 -146 120 -196 299 -520 412 -743 l95 -189
-80 73 c-140 127 -292 230 -435 295 -90 41 -212 196 -323 408 -126 243 -192
525 -210 897 l-7 144 69 -58 c38 -32 155 -124 259 -204z m3505 180 c0 -101
-18 -270 -46 -418 -76 -416 -231 -738 -470 -978 -108 -109 -217 -188 -356
-261 -82 -42 -261 -115 -284 -115 -3 0 28 42 67 93 211 271 317 430 404 602
100 198 159 377 116 351 -5 -4 -38 -64 -74 -134 -140 -279 -340 -555 -550
-761 l-65 -64 -7 58 c-10 74 10 314 35 425 68 308 229 550 520 782 52 42 217
158 365 258 149 101 284 193 300 206 17 13 33 24 38 24 4 0 7 -31 7 -68z
m-5730 -16 c74 0 191 2 260 3 69 1 156 -4 194 -11 l70 -13 63 -95 c35 -52 77
-112 94 -132 16 -20 29 -39 29 -41 0 -5 -241 -21 -320 -22 -30 0 -111 8 -180
17 -69 10 -176 21 -237 24 -95 6 -113 5 -113 -7 0 -10 20 -19 63 -28 34 -7
110 -24 169 -38 l106 -25 31 -62 c38 -79 145 -239 212 -319 27 -33 48 -62 45
-64 -10 -10 -226 21 -337 48 -307 74 -580 233 -828 480 -92 92 -208 227 -200
233 2 1 135 15 294 29 160 15 304 28 320 30 17 2 53 1 80 -2 28 -3 111 -6 185
-5z m8469 -81 c2 -3 -29 -50 -69 -106 -368 -515 -814 -812 -1370 -910 -167
-30 -445 -37 -620 -15 -218 27 -210 18 -84 92 365 215 902 438 1309 544 140
36 165 45 165 61 0 16 -92 7 -255 -26 -361 -74 -717 -195 -1025 -350 l-90 -45
54 83 c29 45 68 109 87 142 29 50 49 70 119 117 364 245 873 396 1410 417 157
6 361 3 369 -4z m-7489 -316 c318 -29 628 -133 886 -297 55 -36 62 -44 83
-103 33 -91 112 -253 161 -328 22 -35 39 -65 36 -68 -7 -7 -212 63 -348 118
-215 88 -406 191 -610 327 -91 60 -133 82 -145 77 -15 -6 1 -25 83 -104 157
-149 351 -280 544 -368 l95 -43 -160 6 c-88 3 -240 9 -338 14 l-177 9 -78 41
c-164 86 -360 247 -491 404 -68 81 -154 204 -184 263 l-17 31 51 7 c175 24
435 30 609 14z m7244 -276 c20 -55 26 -81 19 -92 -15 -25 -254 -223 -408 -338
-150 -113 -483 -338 -489 -332 -11 11 -85 274 -78 280 4 3 50 20 102 38 261
89 539 256 735 444 44 42 82 76 85 76 3 1 18 -34 34 -76z m-8219 -156 c175
-57 346 -86 497 -87 l86 0 46 -42 45 -43 -80 -300 c-45 -165 -83 -302 -85
-304 -9 -9 -276 150 -479 284 -148 99 -418 295 -429 314 -4 6 16 78 44 160
l52 149 111 -53 c62 -29 148 -64 192 -78z m6340 -371 c211 -30 368 -46 480
-47 161 -3 161 6 -5 -160 -165 -164 -263 -246 -435 -361 -210 -140 -446 -242
-656 -283 -212 -42 -476 -28 -679 37 -105 34 -230 87 -230 98 0 7 122 66 237
114 113 47 317 113 448 144 205 49 277 60 600 90 83 7 99 21 43 36 -51 13
-498 0 -616 -18 -142 -22 -312 -61 -438 -101 -59 -18 -102 -30 -98 -26 5 4 45
32 89 62 91 62 240 201 305 285 75 96 79 99 175 123 146 35 200 40 405 36 141
-2 245 -10 375 -29z m-5483 -15 c168 -39 300 -53 613 -61 171 -5 348 -14 395
-20 298 -39 538 -125 754 -274 87 -59 256 -209 256 -227 0 -15 -433 -10 -572
6 -240 28 -500 89 -703 165 -85 32 -114 28 -80 -10 34 -38 156 -113 247 -152
225 -97 476 -143 853 -157 l190 -7 -85 -41 c-414 -201 -914 -185 -1297 41
-262 154 -457 367 -641 699 -18 31 -28 57 -22 57 5 0 47 -9 92 -19z m3309
-413 c52 -23 69 -52 69 -120 0 -54 -2 -58 -37 -85 l-36 -28 -367 -3 c-399 -3
-426 0 -463 50 -28 38 -29 119 -2 149 49 54 86 58 485 55 262 -2 321 -5 351
-18z m-144 -334 c51 -7 52 -7 74 -58 34 -76 38 -221 10 -297 -57 -150 -192
-225 -376 -208 -124 11 -223 78 -276 184 -21 45 -24 62 -23 165 0 95 4 123 21
162 19 40 27 47 55 51 55 7 460 7 515 1z m-675 -94 c-11 -31 -16 -74 -16 -137
l1 -92 -151 -50 c-310 -103 -401 -120 -465 -86 -32 16 -41 33 -41 77 0 55 39
78 372 211 172 69 314 124 315 123 1 -1 -5 -22 -15 -46z m1153 -84 c328 -131
375 -157 375 -210 0 -17 -11 -39 -30 -58 -30 -30 -33 -30 -110 -26 -63 4 -124
19 -304 78 l-225 74 0 85 c0 53 -6 103 -15 130 -18 50 -19 51 -8 51 4 0 147
-56 317 -124z"/>
<path d="M18676 14852 c-55 -1 -106 -8 -113 -14 -29 -24 1 -251 44 -330 46
-85 144 -131 261 -122 63 4 111 25 151 66 46 47 59 84 76 212 27 207 35 198
-169 194 -83 -2 -196 -4 -250 -6z m254 -103 c36 -5 69 -14 74 -19 13 -13 -10
-158 -30 -188 -26 -39 -74 -62 -132 -62 -100 0 -161 48 -181 140 -20 92 -18
98 42 114 92 26 139 30 227 15z"/>
<path d="M19304 14843 c-14 -15 -16 -30 -10 -105 14 -187 39 -258 107 -307 64
-47 176 -59 268 -30 43 15 107 72 131 119 23 46 50 184 50 261 0 47 -4 60 -19
69 -12 6 -115 10 -265 10 -217 0 -246 -2 -262 -17z m415 -103 l33 -13 -6 -56
c-15 -132 -84 -196 -204 -189 -56 4 -66 8 -97 38 -35 35 -48 77 -57 175 -3 38
-2 40 37 52 49 16 245 11 294 -7z"/>
<path d="M19262 10953 c-12 -11 -48 -102 -92 -231 -40 -117 -76 -209 -80 -205
-8 8 -43 104 -112 303 -22 63 -45 121 -50 128 -8 9 -32 12 -77 10 -58 -3 -66
-5 -69 -24 -3 -20 179 -528 216 -604 16 -33 20 -35 71 -38 30 -2 65 -1 77 2
26 7 26 7 149 351 51 143 96 267 100 276 17 44 -90 69 -133 32z"/>
<path d="M19574 10946 c-3 -7 33 -79 80 -160 48 -81 86 -152 86 -156 0 -5 -43
-75 -96 -156 -53 -82 -97 -155 -98 -164 -1 -12 13 -16 72 -18 47 -2 79 1 88 9
8 7 40 54 71 106 31 51 59 96 63 98 5 3 36 -43 70 -102 35 -60 70 -114 78
-120 24 -19 151 -17 159 2 3 10 -33 79 -91 174 -53 87 -96 164 -96 170 0 7 39
73 86 147 50 78 84 141 80 149 -4 11 -22 15 -73 15 -37 0 -73 -4 -79 -8 -6 -4
-34 -47 -64 -96 -61 -102 -52 -105 -125 30 -25 45 -52 85 -61 88 -32 12 -144
7 -150 -8z"/>
<path d="M18290 10943 c-38 -14 -40 -29 -40 -336 0 -197 4 -305 11 -319 11
-20 16 -20 186 -13 238 10 228 6 228 86 l0 64 -127 -1 -126 -1 -5 31 c-2 17
-5 130 -6 251 -1 121 -5 223 -9 227 -10 10 -93 18 -112 11z"/>
<path d="M19226 9744 c-14 -13 -16 -57 -16 -328 0 -258 3 -316 14 -325 9 -7
41 -11 83 -9 l68 3 3 325 c3 370 8 350 -84 350 -34 0 -58 -5 -68 -16z"/>
<path d="M18545 9743 c-43 -2 -85 -9 -92 -15 -18 -15 -19 -638 -1 -656 7 -7
35 -12 63 -12 76 0 84 12 81 135 -2 134 -2 137 43 133 35 -3 38 -6 91 -109 30
-58 61 -114 69 -123 17 -21 143 -23 159 -3 12 14 13 14 -79 179 l-50 91 36 29
c49 41 68 83 68 149 0 71 -32 132 -91 173 -38 27 -50 30 -130 31 -48 1 -123 0
-167 -2z m210 -158 c27 -26 31 -51 14 -88 -15 -33 -49 -47 -114 -47 l-55 0 0
80 0 80 65 0 c57 0 69 -3 90 -25z"/>
<path d="M19629 9741 c-22 -7 -29 -23 -29 -72 0 -28 6 -51 14 -58 8 -7 53 -15
100 -18 l86 -6 0 -253 c0 -292 -5 -277 98 -272 l57 3 3 257 2 257 98 3 97 3 3
56 c2 40 -1 59 -12 68 -10 8 -79 16 -198 22 -101 5 -211 10 -244 12 -34 1 -68
1 -75 -2z"/>
<path d="M17911 9699 c-113 -10 -210 -24 -215 -29 -16 -16 -8 -631 8 -648 10
-10 53 -9 222 4 237 19 244 22 244 90 0 52 -21 77 -59 70 -14 -3 -71 -8 -126
-11 -55 -4 -108 -9 -117 -11 -16 -5 -18 3 -18 64 l0 69 97 7 c53 4 105 12 115
17 23 12 26 100 4 118 -14 12 -63 10 -178 -4 l-38 -5 0 59 0 58 48 6 c26 3 89
9 140 13 60 4 98 12 108 21 29 29 9 138 -24 132 -4 -1 -99 -10 -211 -20z"/>
<path d="M20520 9681 c-10 -9 -46 -80 -79 -159 -34 -78 -90 -208 -126 -287
-36 -80 -65 -154 -65 -165 0 -21 12 -25 86 -33 55 -6 68 3 94 67 l22 55 46 -5
c26 -3 83 -8 127 -12 l80 -7 24 -62 c20 -50 30 -64 54 -73 39 -13 124 -13 132
1 12 18 -227 660 -250 674 -33 21 -123 25 -145 6z m105 -301 c19 -57 33 -105
31 -108 -7 -6 -146 9 -146 17 -1 10 74 200 77 197 2 -2 19 -49 38 -106z"/>
<path d="M17324 9643 c-12 -2 -29 -12 -37 -21 -8 -9 -45 -115 -82 -234 -38
-120 -71 -218 -75 -218 -4 0 -44 87 -90 193 -45 105 -89 200 -98 210 -11 12
-25 16 -49 12 -18 -3 -48 -7 -67 -10 -19 -3 -37 -12 -40 -21 -3 -8 32 -102 79
-208 139 -319 181 -404 201 -408 34 -7 129 13 146 30 19 20 228 651 221 669
-5 13 -61 15 -109 6z"/>
<path d="M21240 9591 c-19 -10 -48 -35 -64 -55 -25 -30 -31 -48 -34 -99 -5
-97 19 -135 148 -228 91 -66 105 -80 108 -107 3 -26 -1 -34 -22 -44 -35 -15
-95 3 -140 42 -18 17 -42 30 -53 30 -23 0 -83 -59 -83 -82 0 -25 85 -94 138
-113 26 -9 76 -19 112 -22 54 -5 73 -2 107 15 78 40 121 117 109 197 -12 74
-38 103 -210 232 -40 30 -56 50 -56 66 0 52 59 63 125 22 22 -13 46 -25 53
-25 21 0 72 62 72 87 0 27 -70 76 -130 93 -57 16 -141 12 -180 -9z"/>
<path d="M18526 8514 c-14 -13 -16 -57 -16 -324 0 -354 -3 -340 83 -340 80 0
81 1 81 137 l1 118 39 0 39 0 65 -115 c35 -63 69 -118 75 -123 7 -4 46 -6 87
-5 63 3 75 6 78 21 2 10 -26 72 -63 137 l-66 119 44 43 c53 51 73 105 63 172
-9 60 -58 124 -116 154 -41 20 -58 22 -211 22 -139 0 -170 -3 -183 -16z m313
-138 c14 -13 21 -31 21 -57 0 -56 -34 -79 -116 -79 l-64 0 0 73 c0 41 3 77 8
81 14 15 130 1 151 -18z"/>
<path d="M19205 8507 c-4 -13 -5 -43 -3 -68 l3 -44 98 -3 97 -3 0 -245 c0
-141 4 -253 10 -264 12 -23 123 -39 145 -20 13 10 15 55 15 266 l0 254 95 0
c90 0 96 1 104 23 12 31 7 95 -8 110 -9 9 -89 13 -281 15 l-269 3 -6 -24z"/>
<path d="M18061 8499 l-24 -9 7 -322 c4 -177 10 -326 12 -330 3 -4 36 -8 73
-8 50 0 72 4 81 15 10 12 12 56 7 193 -4 97 -7 234 -7 303 0 150 -5 161 -76
165 -27 1 -60 -2 -73 -7z"/>
<path d="M19950 8490 c0 -39 221 -634 242 -652 14 -13 37 -18 82 -18 33 0 66
4 73 8 13 8 105 214 204 456 38 93 69 170 69 172 0 1 -7 10 -16 18 -19 20
-113 22 -136 4 -8 -7 -52 -106 -98 -220 -46 -115 -87 -208 -90 -208 -3 0 -39
96 -80 213 -40 116 -80 220 -88 230 -12 13 -31 17 -89 17 -66 0 -73 -2 -73
-20z"/>
<path d="M17663 8473 c-12 -2 -26 -10 -31 -16 -5 -7 -43 -112 -83 -234 -41
-123 -76 -223 -79 -223 -3 0 -45 92 -94 205 -49 112 -95 210 -102 216 -21 17
-142 2 -153 -19 -6 -12 12 -64 64 -185 126 -288 196 -435 211 -441 26 -10 135
7 153 23 25 22 242 643 234 669 -5 12 -70 15 -120 5z"/>
<path d="M20915 8442 c-84 -39 -123 -112 -112 -208 7 -62 40 -105 132 -170
106 -76 125 -93 125 -119 0 -30 -19 -45 -58 -45 -39 0 -64 12 -110 51 -18 16
-37 29 -42 29 -20 0 -80 -63 -80 -84 0 -30 54 -80 115 -108 39 -17 68 -23 131
-23 71 0 85 3 122 28 77 50 104 154 63 242 -21 46 -37 61 -141 134 -86 61
-100 76 -100 108 0 47 67 57 124 18 49 -33 69 -32 100 9 32 42 32 57 4 83 -69
63 -200 89 -273 55z"/>
<path d="M25732 17367 c-18 -20 -19 -25 -7 -47 27 -48 19 -85 -32 -144 -58
-68 -696 -662 -738 -688 -37 -22 -83 -23 -113 -2 -22 15 -25 15 -47 -6 l-24
-23 153 -161 c84 -88 166 -176 182 -194 l29 -33 23 24 c21 22 22 26 7 53 -38
73 -28 87 268 353 l27 25 34 -33 c62 -60 62 -58 12 -251 -64 -247 -79 -338
-74 -445 5 -103 31 -172 98 -261 51 -68 139 -114 217 -114 52 0 53 0 53 30 0
24 -6 32 -33 44 -75 31 -106 110 -88 226 9 58 115 444 126 458 1 1 35 -17 74
-42 181 -111 355 -97 479 39 62 67 91 130 98 208 14 148 -71 332 -246 532
-102 116 -412 444 -435 459 -21 14 -24 13 -43 -7z m429 -594 c88 -127 92 -261
13 -356 -78 -93 -193 -142 -276 -118 -72 21 -145 79 -244 195 l-95 110 28 27
c15 15 109 100 208 189 l180 161 77 -81 c43 -44 92 -101 109 -127z"/>
<path d="M12610 17271 c-151 -39 -270 -110 -375 -223 -118 -128 -177 -252
-198 -420 -45 -358 209 -710 575 -798 165 -40 338 -20 493 55 109 53 188 114
254 197 220 276 218 671 -5 942 -89 109 -213 190 -359 236 -101 32 -282 37
-385 11z m115 -196 c132 -34 289 -137 413 -270 126 -136 189 -277 180 -406
-10 -132 -102 -265 -225 -326 -74 -36 -200 -44 -289 -18 -129 37 -267 126
-389 250 -163 165 -230 334 -191 485 34 130 133 240 257 284 57 20 169 20 244
1z"/>
<path d="M11457 15989 c-33 -50 -82 -127 -110 -171 l-51 -80 24 -18 c22 -17
25 -17 54 1 48 29 118 25 196 -12 63 -30 562 -331 557 -336 -2 -1 -264 -63
-582 -138 -319 -75 -590 -143 -603 -151 -22 -14 -202 -361 -202 -388 0 -7 11
-18 24 -24 20 -9 27 -7 43 10 40 44 187 95 247 85 34 -5 621 -309 721 -372 94
-60 145 -128 145 -193 0 -21 7 -32 26 -41 15 -6 28 -10 29 -9 1 2 43 83 92
180 l90 178 -24 15 c-21 14 -25 14 -52 -6 -40 -29 -106 -35 -177 -14 -64 18
-677 336 -666 346 4 3 273 70 597 148 325 79 618 150 653 158 53 13 67 21 87
51 l24 35 -446 279 c-246 153 -468 297 -494 319 -67 56 -91 99 -91 160 0 39
-5 53 -21 64 -12 8 -24 15 -27 15 -3 0 -31 -41 -63 -91z"/>
<path d="M26847 16019 c-15 -9 -17 -18 -12 -52 7 -44 -17 -172 -40 -217 -7
-14 -26 -37 -42 -51 -34 -32 -628 -393 -700 -426 -77 -35 -140 -40 -190 -14
-40 20 -42 20 -64 2 l-23 -18 71 -109 c38 -60 86 -135 106 -166 20 -32 40 -58
45 -58 23 0 40 29 44 76 6 60 37 110 106 165 46 39 612 382 612 373 0 -3 -91
-296 -201 -651 l-201 -645 17 -39 18 -39 471 239 c259 132 500 249 536 261 76
26 138 23 181 -9 32 -24 48 -26 72 -8 15 11 10 26 -58 170 -97 205 -100 209
-131 195 -19 -9 -24 -19 -24 -47 0 -62 -48 -123 -145 -183 -70 -44 -536 -280
-541 -275 -3 3 76 258 175 566 100 309 181 574 181 589 0 16 -22 62 -49 107
-86 138 -176 269 -186 272 -5 1 -18 -2 -28 -8z"/>
<path d="M10770 10517 c-26 -7 -63 -23 -83 -36 -106 -65 -123 -205 -36 -292
l38 -38 -31 -22 c-44 -32 -82 -119 -74 -171 15 -91 81 -162 176 -188 54 -15
190 -12 241 5 58 20 114 67 139 116 39 75 15 180 -52 234 l-34 27 37 37 c97
96 65 242 -66 307 -67 32 -181 42 -255 21z m174 -158 c50 -39 27 -118 -39
-135 -41 -10 -92 5 -115 33 -27 34 -25 69 5 98 32 33 110 35 149 4z m-35 -285
c92 -19 109 -125 26 -160 -49 -20 -97 -17 -136 9 -58 39 -50 114 14 142 36 16
52 18 96 9z"/>
<path d="M27295 10507 c-104 -50 -159 -135 -159 -247 0 -160 139 -267 294
-226 30 8 56 13 58 11 9 -9 -107 -107 -155 -132 -31 -16 -61 -36 -66 -45 -20
-31 37 -128 76 -128 42 0 144 58 209 119 176 164 221 441 95 578 -62 67 -106
86 -212 90 -79 4 -96 1 -140 -20z m202 -173 c89 -57 38 -174 -75 -174 -37 0
-50 6 -78 34 -39 39 -42 56 -14 100 38 62 108 79 167 40z"/>
<path d="M28080 10517 c-96 -27 -151 -79 -169 -158 -14 -63 3 -123 49 -169
l36 -36 -41 -40 c-118 -113 -57 -296 115 -344 54 -15 190 -12 241 5 164 56
212 250 86 350 l-35 28 31 26 c37 31 67 94 67 141 0 43 -29 107 -61 137 -66
60 -218 89 -319 60z m174 -158 c50 -39 27 -118 -39 -135 -41 -10 -92 5 -115
33 -27 34 -25 69 5 98 32 33 110 35 149 4z m11 -305 c52 -34 43 -107 -15 -136
-48 -25 -100 -23 -141 5 -58 39 -50 114 14 143 38 17 106 11 142 -12z"/>
<path d="M10116 10489 c-84 -27 -87 -31 -84 -108 l3 -66 35 1 c19 0 46 2 60 5
l25 4 3 -264 c1 -175 6 -269 13 -278 7 -8 34 -13 74 -13 100 0 95 -19 95 369
0 210 -4 339 -10 352 -9 16 -21 19 -83 18 -41 -1 -98 -9 -131 -20z"/>
<path d="M25340 5738 c-24 -29 -93 -108 -152 -174 l-107 -121 22 -22 c22 -20
24 -20 65 -4 41 16 44 15 70 -3 48 -36 59 -76 90 -329 16 -132 28 -241 26
-243 -1 -2 -113 13 -249 32 -318 46 -365 65 -337 139 10 27 9 34 -10 54 l-21
23 -96 -93 c-53 -51 -151 -141 -218 -199 l-122 -107 19 -24 c18 -22 22 -23 82
-15 54 8 126 1 483 -47 l420 -56 137 -138 c75 -76 146 -154 157 -172 25 -40
27 -79 6 -118 -13 -26 -13 -30 9 -50 l22 -21 194 195 193 195 -23 25 c-21 23
-24 23 -51 10 -67 -35 -97 -17 -304 181 l-147 141 -39 334 c-47 407 -54 510
-40 569 9 41 8 47 -13 68 l-22 23 -44 -53z"/>
<path d="M13050 5692 c-22 -18 -22 -19 -6 -50 9 -17 16 -39 16 -48 0 -41 -61
-112 -252 -289 -352 -328 -375 -355 -423 -498 -27 -83 -33 -202 -14 -287 43
-193 259 -428 465 -506 177 -67 387 -29 541 99 28 23 126 123 217 222 268 288
349 344 450 306 21 -8 27 -6 41 16 17 26 17 26 -31 67 -27 22 -89 77 -137 121
-119 107 -114 105 -137 77 -16 -19 -18 -28 -9 -44 6 -12 9 -47 7 -79 -6 -86
-50 -143 -297 -390 -189 -189 -225 -221 -286 -250 -64 -31 -77 -34 -165 -34
-84 0 -101 3 -154 29 -83 41 -189 143 -226 220 -54 109 -50 207 13 331 24 48
77 106 261 288 242 240 333 317 372 317 13 0 39 -8 59 -17 34 -16 36 -16 57 5
l21 21 -64 68 c-35 38 -113 125 -173 193 -60 69 -113 126 -116 128 -4 1 -17
-6 -30 -16z"/>
<path d="M24165 4590 c-4 -6 -93 -75 -198 -154 -214 -160 -514 -364 -665 -451
l-100 -58 19 -66 c10 -36 31 -113 47 -171 24 -86 33 -106 49 -108 26 -4 53 23
53 51 0 69 65 235 118 306 39 50 111 101 143 101 38 0 51 -17 362 -481 283
-422 292 -440 248 -499 -25 -35 -26 -39 -5 -68 l15 -22 92 62 c157 105 357
248 357 256 0 4 -7 17 -15 29 -15 21 -17 21 -51 7 -19 -8 -43 -12 -53 -9 -37
11 -109 104 -375 484 -203 289 -276 401 -276 421 0 36 54 82 130 111 72 28
210 35 312 17 l76 -14 16 26 15 27 -145 106 c-79 59 -149 107 -154 107 -5 0
-12 -5 -15 -10z"/>
<path d="M14246 4529 c-13 -20 -13 -25 1 -52 19 -37 42 -164 43 -233 0 -60 10
-44 -249 -414 -257 -366 -309 -418 -408 -407 -39 4 -46 2 -60 -20 -16 -24 -16
-26 8 -44 51 -41 299 -219 304 -219 2 0 12 11 20 24 15 22 15 27 1 55 -26 49
-20 110 17 183 31 62 397 608 407 608 3 0 54 -228 114 -508 60 -279 124 -580
144 -670 l36 -163 37 -20 38 -19 87 148 c515 870 502 851 570 893 23 14 53 22
80 22 35 0 44 4 53 24 6 13 11 26 11 28 0 2 -30 21 -67 41 -38 21 -113 64
-169 96 -55 32 -104 58 -107 58 -3 0 -11 -9 -17 -21 -9 -17 -7 -31 9 -69 27
-62 26 -89 -3 -173 -34 -95 -309 -554 -318 -530 -4 10 -59 265 -123 568 -64
302 -123 564 -130 581 -9 22 -58 66 -160 143 -80 61 -148 111 -150 111 -2 0
-11 -10 -19 -21z"/>
<path d="M22835 3717 c-66 -33 -171 -84 -233 -113 -63 -29 -116 -55 -118 -57
-3 -2 0 -16 5 -30 10 -25 14 -26 54 -21 83 12 94 -6 400 -646 80 -168 150
-324 155 -346 11 -49 -5 -96 -37 -114 -20 -10 -20 -13 -6 -40 15 -29 15 -29
52 -13 59 24 453 223 453 228 0 2 -5 15 -11 28 -10 21 -16 23 -58 19 -42 -4
-49 -1 -79 29 -32 33 -445 828 -477 919 -23 64 -19 95 16 134 27 32 29 37 17
59 l-13 25 -120 -61z"/>
<path d="M15791 3573 c-11 -24 -9 -29 21 -60 48 -49 43 -87 -30 -258 -142
-332 -325 -743 -348 -783 -34 -57 -64 -76 -114 -69 -36 5 -40 3 -49 -24 -10
-30 -10 -30 67 -65 89 -41 303 -133 379 -163 l52 -20 9 27 c8 23 5 32 -22 60
-34 36 -39 84 -16 144 54 138 347 832 370 878 38 75 72 102 123 98 34 -2 41 1
53 25 13 25 13 28 -3 34 -49 18 -370 156 -413 178 -61 31 -64 31 -79 -2z"/>
<path d="M22024 3339 c-22 -14 -64 -22 -144 -30 -194 -18 -315 -58 -436 -145
-159 -112 -226 -286 -175 -451 27 -91 74 -160 134 -200 109 -73 238 -86 522
-53 258 29 351 29 412 -2 55 -27 81 -59 93 -114 18 -79 -31 -173 -120 -229
-85 -54 -222 -86 -360 -86 -160 0 -296 42 -428 133 -41 28 -44 29 -68 13 l-25
-16 18 -32 c11 -18 54 -94 97 -169 65 -115 82 -138 102 -138 12 0 26 5 30 11
19 31 97 51 242 59 312 19 530 118 652 296 104 150 87 358 -40 485 -107 108
-249 129 -610 89 -288 -31 -362 -23 -424 50 -108 129 4 297 233 346 134 28
241 10 399 -68 59 -28 109 -52 112 -52 3 -1 15 6 28 15 l23 17 -98 145 c-106
157 -111 162 -169 126z"/>
<path d="M16443 3291 c-9 -26 -8 -32 13 -52 13 -12 33 -46 44 -76 11 -29 86
-360 166 -736 80 -375 146 -682 147 -683 34 -12 83 -22 88 -16 3 4 193 230
421 502 228 272 440 518 471 546 31 29 81 62 111 74 45 19 55 28 58 51 3 16 1
29 -3 29 -12 0 -392 70 -410 76 -12 3 -19 -3 -23 -21 -5 -21 1 -32 39 -68 51
-49 57 -79 27 -135 -10 -18 -139 -178 -287 -357 -206 -248 -272 -320 -277
-307 -16 38 -158 806 -158 853 0 43 5 55 29 80 17 16 40 29 54 29 17 0 27 7
31 23 9 35 7 47 -9 47 -12 0 -451 143 -505 164 -11 5 -19 -3 -27 -23z"/>
<path d="M20235 2910 c-66 -10 -210 -26 -320 -35 -304 -25 -285 -21 -285 -55
0 -25 5 -30 33 -35 64 -13 89 -51 106 -165 23 -161 92 -927 86 -960 -9 -50
-31 -79 -72 -96 -24 -11 -33 -20 -29 -30 3 -9 6 -22 6 -31 0 -12 11 -14 63 -9
34 3 141 13 237 21 255 22 250 21 250 55 0 25 -5 31 -38 40 -48 12 -70 36 -87
93 -19 65 -51 355 -39 367 5 5 38 11 74 14 l65 6 110 -122 c266 -294 419 -382
617 -357 82 10 123 27 171 68 34 31 84 99 76 105 -45 34 -50 35 -86 10 -46
-31 -109 -32 -165 -3 -53 27 -121 92 -269 256 l-119 132 74 35 c90 44 178 121
214 190 24 46 27 62 27 151 0 89 -3 107 -29 162 -46 101 -130 166 -253 198
-77 20 -265 18 -418 -5z m261 -147 c92 -48 145 -146 146 -266 1 -127 -72 -209
-222 -250 -63 -18 -278 -42 -288 -33 -6 7 -61 461 -62 513 0 35 -8 31 115 53
28 5 100 8 160 6 90 -1 117 -6 151 -23z"/>
<path d="M18126 2888 c-9 -35 -8 -36 32 -57 50 -25 62 -55 62 -149 0 -71 -71
-847 -86 -942 -10 -60 -42 -102 -92 -120 -36 -12 -42 -19 -42 -42 0 -32 -3
-31 215 -53 298 -29 491 -40 851 -51 l210 -6 43 168 c24 93 44 173 45 178 0 5
-11 13 -26 18 -24 8 -32 3 -100 -64 -40 -40 -97 -86 -126 -101 -97 -52 -279
-69 -521 -47 -128 12 -141 21 -141 97 0 58 27 407 36 462 l5 34 107 -6 c121
-7 249 -37 292 -67 16 -11 35 -36 41 -55 11 -30 18 -35 44 -35 l32 0 6 128 c4
70 7 157 7 195 l0 67 -34 0 c-27 0 -35 -5 -40 -23 -10 -42 -58 -76 -122 -88
-60 -11 -308 -9 -319 3 -13 12 25 321 43 358 l17 35 160 -2 c243 -3 369 -35
496 -128 42 -32 50 -34 68 -23 12 7 21 17 21 23 0 5 -19 62 -43 125 l-42 115
-212 7 c-293 9 -708 40 -849 63 -27 5 -33 2 -38 -17z"/>
</g>
</svg>
